<svg xmlns="http://www.w3.org/2000/svg" xmlns:xlink="http://www.w3.org/1999/xlink" viewBox="0 0 659.23 170.08"><defs><radialGradient id="radial-gradient" cx="-2720.25" cy="-30.68" fx="-2783.1403894996556" fy="38.78208694829166" r="537.48" gradientTransform="matrix(-0.07, 0.83, -0.03, 0, 441.17, 2248.76)" gradientUnits="userSpaceOnUse"><stop offset="0" stop-color="#b1b3b6"/><stop offset="0.16" stop-color="#b3b5b7" stop-opacity="0.98"/><stop offset="0.31" stop-color="#b7b9bc" stop-opacity="0.92"/><stop offset="0.45" stop-color="#c0c1c4" stop-opacity="0.81"/><stop offset="0.59" stop-color="#cbccce" stop-opacity="0.67"/><stop offset="0.74" stop-color="#dadbdc" stop-opacity="0.48"/><stop offset="0.87" stop-color="#ececed" stop-opacity="0.25"/><stop offset="1" stop-color="#fff" stop-opacity="0"/></radialGradient><radialGradient id="radial-gradient-2" cx="-3010.31" cy="-30.68" fx="-3073.1922696872725" fy="38.782085852747755" r="537.48" gradientTransform="matrix(0.07, 0.83, 0.03, 0, 445.46, 2489.34)" xlink:href="#radial-gradient"/></defs><g style="isolation:isolate"><g id="Layer_1" data-name="Layer 1"><rect x="238.48" width="389.69" height="170.08" style="fill:#ed1c24"/><path d="M12.78,73.32H4.62v7.62h9.13V83.2H1.88V62.12h11.4V64.4H4.62v6.68h8.16Z" style="fill:#fff"/><path d="M18.86,83.2V62.12h3l6.72,10.66a58.42,58.42,0,0,1,3.75,6.86l.1,0c-.26-2.84-.31-5.39-.31-8.65V62.12h2.56V83.2H31.92L25.21,72.51a69.29,69.29,0,0,1-3.9-7l-.08,0c.16,2.65.17,5.19.17,8.7v9Z" style="fill:#fff"/><path d="M57.07,82.27a18.94,18.94,0,0,1-6.51,1.15,10.91,10.91,0,0,1-7.9-2.77,11,11,0,0,1-2.92-7.87c0-6.28,4.34-10.89,11.41-10.89a13.39,13.39,0,0,1,5.29,1l-.69,2.23a10.4,10.4,0,0,0-4.67-.91c-5.12,0-8.47,3.18-8.47,8.47s3.19,8.52,8.12,8.52a8.73,8.73,0,0,0,3.65-.57v-6.3H50.11V72.13h7Z" style="fill:#fff"/><path d="M65.45,62.12V83.2H62.71V62.12Z" style="fill:#fff"/><path d="M71.79,83.2V62.12h3l6.73,10.66a56.83,56.83,0,0,1,3.74,6.86l.11,0C85.11,76.78,85,74.23,85,71V62.12h2.57V83.2H84.86l-6.7-10.69a64.18,64.18,0,0,1-3.92-7l-.08,0c.14,2.65.18,5.19.18,8.7v9Z" style="fill:#fff"/><path d="M104.8,73.32H96.64v7.62h9.14V83.2H93.89V62.12h11.42V64.4H96.64v6.68h8.16Z" style="fill:#fff"/><path d="M121.76,73.32h-8.18v7.62h9.15V83.2H110.84V62.12h11.42V64.4h-8.68v6.68h8.18Z" style="fill:#fff"/><path d="M127.81,62.44A26.71,26.71,0,0,1,133,62c2.9,0,4.81.56,6.13,1.76a5.24,5.24,0,0,1,1.65,4,5.57,5.57,0,0,1-4,5.35v.09c1.58.58,2.56,2.08,3.1,4.25a38.83,38.83,0,0,0,1.58,5.79h-2.81a24.93,24.93,0,0,1-1.36-5c-.65-2.9-1.79-4-4.27-4.09h-2.56V83.2h-2.72ZM130.53,72h2.78c2.91,0,4.75-1.59,4.75-4,0-2.71-2-3.91-4.85-3.91a11.76,11.76,0,0,0-2.68.25Z" style="fill:#fff"/><path d="M148.92,62.12V83.2h-2.75V62.12Z" style="fill:#fff"/><path d="M155.23,83.2V62.12h3L165,72.78a57.15,57.15,0,0,1,3.76,6.86l.09,0c-.25-2.84-.32-5.39-.32-8.65V62.12h2.58V83.2h-2.76l-6.69-10.69a62.56,62.56,0,0,1-3.92-7l-.09,0c.14,2.65.18,5.19.18,8.7v9Z" style="fill:#fff"/><path d="M193.44,82.27a18.77,18.77,0,0,1-6.5,1.15,9.87,9.87,0,0,1-10.82-10.64c0-6.28,4.35-10.89,11.42-10.89a13.29,13.29,0,0,1,5.28,1l-.69,2.23a10.28,10.28,0,0,0-4.67-.91c-5.12,0-8.46,3.18-8.46,8.47s3.18,8.52,8.12,8.52a8.61,8.61,0,0,0,3.64-.57v-6.3h-4.25V72.13h6.93Z" style="fill:#fff"/><path d="M5.69,94.79H0v-4H16.21v4H10.43v17.07H5.69Z" style="fill:#fff"/><path d="M30.1,112.2c-6.22,0-9.92-4.71-9.92-10.73,0-6.32,4.06-11,10.25-11,6.48,0,10,4.85,10,10.67,0,6.94-4.16,11.09-10.33,11.09Zm.21-3.77c3.23,0,5.08-3,5.08-7.17,0-3.78-1.78-7-5.08-7s-5.13,3.19-5.13,7.13,1.93,7.08,5.12,7.08Z" style="fill:#fff"/><path d="M63.75,103.79c-.11-2.53-.18-5.58-.18-8.66h-.08c-.68,2.7-1.55,5.7-2.37,8.16l-2.57,8.24H54.83l-2.25-8.14c-.7-2.51-1.37-5.47-1.91-8.26H50.6c-.09,2.84-.21,6.1-.34,8.73l-.42,8H45.46l1.33-21.08h6.34l2.08,7.08c.68,2.41,1.3,5,1.79,7.5h.11c.57-2.44,1.28-5.19,2-7.58l2.22-7H67.6l1.12,21.08H64.09Z" style="fill:#fff"/><path d="M83.8,112.2c-6.22,0-9.92-4.71-9.92-10.73,0-6.32,4.07-11,10.25-11,6.49,0,10,4.85,10,10.67,0,6.94-4.16,11.09-10.32,11.09Zm.21-3.77c3.22,0,5.06-3,5.06-7.17,0-3.78-1.76-7-5.06-7s-5.12,3.19-5.12,7.13,1.89,7.08,5.08,7.08Z" style="fill:#fff"/><path d="M99.89,91.09a37.36,37.36,0,0,1,6.34-.47c3.14,0,5.33.47,6.82,1.69a5.24,5.24,0,0,1,2,4.41,5.58,5.58,0,0,1-3.71,5.16V102c1.45.6,2.28,2,2.79,3.93.67,2.4,1.28,5.14,1.69,6h-4.87a28,28,0,0,1-1.44-4.89c-.59-2.67-1.5-3.37-3.46-3.39h-1.42v8.28H99.89Zm4.72,9h1.89c2.37,0,3.77-1.18,3.77-3s-1.32-2.93-3.51-2.93a9,9,0,0,0-2.15.17Z" style="fill:#fff"/><path d="M122.48,91.09a37.49,37.49,0,0,1,6.33-.47c3.15,0,5.32.47,6.82,1.69a5.25,5.25,0,0,1,2,4.41,5.58,5.58,0,0,1-3.72,5.16V102c1.47.6,2.28,2,2.81,3.93.66,2.4,1.28,5.14,1.68,6h-4.86a24.89,24.89,0,0,1-1.46-4.89c-.6-2.67-1.49-3.37-3.46-3.39H127.2v8.28h-4.72Zm4.72,9h1.88c2.37,0,3.78-1.18,3.78-3s-1.3-2.93-3.51-2.93a8.66,8.66,0,0,0-2.15.17Z" style="fill:#fff"/><path d="M152.73,112.2c-6.23,0-9.9-4.71-9.9-10.73,0-6.32,4.07-11,10.26-11,6.47,0,10,4.85,10,10.67,0,6.94-4.15,11.09-10.31,11.09Zm.23-3.77c3.23,0,5.07-3,5.07-7.17,0-3.78-1.79-7-5.07-7s-5.12,3.19-5.12,7.13,1.89,7.08,5.1,7.08Z" style="fill:#fff"/><path d="M172,111.86l-5-21.08h5.12l1.58,8.66c.48,2.53.9,5.25,1.25,7.42H175c.34-2.3.85-4.85,1.39-7.48l1.78-8.6h5.06L185,99.67c.45,2.47.82,4.72,1.11,7.08h.09c.29-2.36.77-4.83,1.2-7.37l1.72-8.6H194l-5.45,21.08h-5.17l-1.79-9.07c-.41-2.11-.73-4.1-1-6.5h-.06c-.39,2.36-.73,4.39-1.23,6.5l-2,9.07Z" style="fill:#fff"/><path d="M287.2,53.42c24.33-9.11,51.83-15,79.89-10.89l2.85-5.27c5.77-.93,11.68-1.71,17.45-2.31L379.61,46.9c7.56,3.31,13.94,11.3,14.56,19.74,0,11.36-5.06,20.88-10.94,29.73l8.45-1c5.74-9.26,21.75-20.51,28.3-12l2.29-3.18,10.66-1.61c-9.34,17.3-14.31,22-13.09,23.61,1.44,1.91,18.43-13.19,24.85-25.53l10.12-1.11-5.67,10c10.22-8.35,13.94-13.76,19.56-11.43,7.9,3.29-9.45,21.71-7.5,22.94,1.56,1,15.53-9.2,22.18-19.54l-9.5,1.52,3.33-6.18,9.41-1.21c10.18-18.77,37-54.75,45.23-49.43,7.59,4.91-10.67,28.71-34.66,45.85l-1.51,2.66,20.78-2.34a.81.81,0,0,1,.12,1.3c-6.73,5.69-19.88,19.56-13,23.9,6.09,2.17,15.62-11.92,16.46-14.75-5.36-1.69-1.08-16.75,6.63-14.81,5.22,1.77,1.27,9.22,0,12.1,9.87-1.22,18.8-11.33,18.8-11.33,0-8,5-16.56,10.92-14.47,3.84,2,.65,7.73-5.55,14.35-.77.81-.44,3.94-.55,7.57A178.14,178.14,0,0,0,571,63.64c.1-7.68,3.91-17,10.38-15.06,4.73,1.42,0,10.89-5.9,15.67-.12,10.33,1.55,17.12-1,22.52-3,6.22-13.44,11.38-19.58,7.81-6.45-3.74-.74-12,3.23-15.14,3.45-2.89,12.44-7,12.44-7a29,29,0,0,0,.26-5.22c-3.49,2.11-20.21,8.33-20.21,8.33-.72,6.13-.56,8.64-3.49,14.19-3.63,6.88-15.49,9.7-19.5,5.78-2.76-2.69-2-9.18,3.77-13.82,4.35-3.51,13.47-7.32,13.47-7.32a19.64,19.64,0,0,0,.51-4.94c-5.86,5-12.62,10.23-21.25,10.44h0c-5.24,10.42-19.09,24.8-29,18.31-9.55-6.25,5.85-22.6,7.41-23.81a90.58,90.58,0,0,0-9.64,1.59L476,107.19l.23-.08s57.72-6.6,110.06-6.74L580,106.24a102.28,102.28,0,0,0,9.31,6A1045.89,1045.89,0,0,0,471.78,115l-9.22,17.12-11.4.82L461,115.77s-28.62.92-91.36,9.38c.75-1.28.89-1.57,1.89-3.28,55.93-10.76,93.73-13.56,93.73-13.56s8.77-15.06,8.43-14.79c-5.53,4.6-17.65,14.4-22.75,9.61-3.74-4.63,9.16-19.3,7.71-20.49-1.21-1-16.47,14.73-22,23.31-3.07.17-8.94.92-8.94.92l4.43-8.64c-5,3.85-10.26,8.12-15.91,10.35-1.56.63-5.15.81-6.65-3.39,0,0-11.3,10.24-18.87,6.28-4.08-2.13-2.22-9.78-1.48-11.53l-9,1c-39.05,45.19-89.91,50.34-96,40.38-6.46-10.63,16.6-24.8,48.22-34.76,0,0,28.06-50.64,27.55-51-38.85-5.93-86.76,23.95-86.76,23.95ZM302,134.91c4.57,5.78,42.74-.3,68.54-32.27-17.81,2.82-28.42,6.6-32.28,8-8.4,13.72-11.89,18.67-15.13,18.21-3.89-.54,2.27-7.87,5.62-15C314.62,118.36,297.7,129.53,302,134.91Zm41.13-31.61A258.8,258.8,0,0,1,374,97.55c4.54-7.31,19.1-31.64-1.77-39.16Zm60.33-10.18c-3,4-6.24,10.68-3.77,12.62s9.28-4,11.58-6.95c3.94-5.09,7.08-12.08,4.68-13.38C412.12,83.35,405.53,90.25,403.41,93.12Zm98.23-33.57c7.62-4.66,27-24,22.22-28.51C518.85,28.91,505.55,50.38,501.64,59.55Zm34.64,23c-3.16,2.35-4.81,5.17-3.23,6.47s5.49-1.14,7.24-3.56a20.19,20.19,0,0,0,3.41-7.08S541.15,78.88,536.28,82.5Zm25.21-1.28c-1.11,1-5.16,4.69-3.39,6.55,1.52,1.61,6-1.11,7.84-3.25a21.75,21.75,0,0,0,3.59-7.45A23.76,23.76,0,0,0,561.49,81.22Z" style="fill:#fff"/><rect x="628.17" width="31.06" height="170.08" style="mix-blend-mode:multiply;fill:url(#radial-gradient)"/><rect x="207.42" width="31.06" height="170.08" style="mix-blend-mode:multiply;fill:url(#radial-gradient-2)"/></g></g></svg>