<?xml version="1.0" encoding="UTF-8"?><svg id="Layer_2" xmlns="http://www.w3.org/2000/svg" viewBox="0 0 402.18 122.11"><g id="Layer_1-2"><path d="m121.27,36.37c-17.47,0-29.21,9.08-29.21,22.6s11.74,16.6,21.18,19.38c8.5,2.5,13.71,4.3,13.71,9.38,0,8-8.97,10.86-17.37,10.86-7.76,0-15.73-2.94-19.84-7.3l-2.12-2.25-6.03,9.72,1.22,1.33c5.12,5.56,15.61,9.29,26.09,9.29,18.09,0,29.78-8.87,29.78-22.6,0-12.59-11.61-16.02-20.94-18.78-8.76-2.59-14.08-4.53-14.05-9.69,0-6.77,6.74-11.14,17.18-11.14,6.39,0,12.36,1.78,16.82,5.01l2.23,1.62,5.18-10.02-1.66-1.2c-5.46-3.94-13.54-6.2-22.19-6.2Z" style="stroke-width:0px;"/><path d="m93.43,43.62h-24.27l4.12-20.42h36.52l2.11-10.45h-48.98l-13.42,67.09h12.46l5.18-25.69h20.98c.8-4.02,2.62-7.58,5.3-10.54Z" style="stroke-width:0px;"/><path d="m18.2,1.54c-2.75,1.03-5.05,2.48-6.9,4.36-1.85,1.88-3.24,4.11-4.16,6.7-.92,2.59-1.37,5.43-1.37,8.51,0,2.32.18,4.6.54,6.84.36,2.23.74,4.45,1.14,6.64.4,2.19.78,4.38,1.14,6.57.36,2.19.54,4.4.54,6.64,0,2.86-.78,5.18-2.35,6.97-1.56,1.79-3.82,2.68-6.77,2.68v7.17c2.95,0,5.2.9,6.77,2.71,1.56,1.81,2.35,4.12,2.35,6.94,0,2.23-.18,4.45-.54,6.63-.36,2.19-.74,4.39-1.14,6.6-.4,2.21-.78,4.42-1.14,6.63-.36,2.21-.54,4.48-.54,6.8,0,3.08.46,5.92,1.37,8.51.92,2.59,2.3,4.83,4.16,6.7,1.85,1.88,4.16,3.34,6.9,4.39,2.75,1.05,5.93,1.58,9.55,1.58h3.62v-5.36c0-.89-.31-1.54-.94-1.94-.63-.4-1.21-.6-1.74-.6h-1.34c-3.48,0-6.21-1.12-8.18-3.35-1.97-2.23-2.95-5.29-2.95-9.18,0-2.5.16-4.91.47-7.24.31-2.32.67-4.59,1.07-6.8.4-2.21.76-4.41,1.07-6.6.31-2.19.47-4.4.47-6.63,0-1.65-.25-3.21-.74-4.66-.49-1.45-1.2-2.76-2.11-3.92-.92-1.16-1.99-2.14-3.22-2.95-1.23-.8-2.58-1.41-4.05-1.81,1.47-.4,2.83-1.02,4.05-1.84,1.23-.83,2.3-1.82,3.22-2.98.92-1.16,1.62-2.47,2.11-3.92.49-1.45.74-3,.74-4.66,0-2.23-.16-4.45-.47-6.63-.31-2.19-.67-4.39-1.07-6.6-.4-2.21-.76-4.48-1.07-6.8-.31-2.32-.47-4.74-.47-7.24,0-3.84.98-6.89,2.95-9.15,1.97-2.26,4.69-3.38,8.18-3.38h1.34c.54,0,1.12-.2,1.74-.6.63-.4.94-1.05.94-1.94V0h-3.62c-3.62,0-6.8.51-9.55,1.54Z" style="stroke-width:0px;"/><path d="m402.18,64.67v-7.17c-2.95,0-5.2-.9-6.77-2.71-1.56-1.81-2.35-4.12-2.35-6.94,0-2.23.18-4.45.54-6.63.36-2.19.74-4.39,1.14-6.6.4-2.21.78-4.42,1.14-6.63.36-2.21.54-4.48.54-6.8,0-3.08-.46-5.92-1.37-8.51-.92-2.59-2.3-4.83-4.16-6.7-1.85-1.88-4.16-3.34-6.9-4.39-2.75-1.05-5.93-1.58-9.55-1.58h-3.62v5.36c0,.89.31,1.54.94,1.94.63.4,1.21.6,1.74.6h1.34c3.48,0,6.21,1.12,8.18,3.35,1.97,2.23,2.95,5.29,2.95,9.18,0,2.5-.16,4.91-.47,7.24-.31,2.32-.67,4.59-1.07,6.8-.4,2.21-.76,4.41-1.07,6.6-.31,2.19-.47,4.4-.47,6.63,0,1.65.25,3.21.74,4.66.49,1.45,1.2,2.76,2.11,3.92.92,1.16,1.99,2.14,3.22,2.95,1.23.8,2.58,1.41,4.05,1.81-1.47.4-2.83,1.02-4.05,1.84-1.23.83-2.3,1.82-3.22,2.98-.92,1.16-1.62,2.47-2.11,3.92-.49,1.45-.74,3-.74,4.66,0,2.23.16,4.45.47,6.63.31,2.19.67,4.39,1.07,6.6.4,2.21.76,4.48,1.07,6.8.31,2.32.47,4.74.47,7.24,0,3.84-.98,6.89-2.95,9.15-1.97,2.26-4.69,3.38-8.18,3.38h-1.34c-.54,0-1.12.2-1.74.6-.63.4-.94,1.05-.94,1.94v5.29h3.62c3.62,0,6.8-.51,9.55-1.54,2.75-1.03,5.05-2.48,6.9-4.36,1.85-1.88,3.24-4.11,4.16-6.7.92-2.59,1.37-5.43,1.37-8.51,0-2.32-.18-4.6-.54-6.84-.36-2.23-.74-4.45-1.14-6.64-.4-2.19-.78-4.38-1.14-6.57-.36-2.19-.54-4.4-.54-6.64,0-2.86.78-5.18,2.35-6.97,1.56-1.79,3.82-2.68,6.77-2.68Z" style="stroke-width:0px;"/><path d="m228.08,54.08c.39-.39.69-.85.9-1.38.21-.53.31-1.09.31-1.7,0-.57-.09-1.05-.28-1.44-.19-.39-.44-.72-.75-.99-.31-.27-.66-.49-1.06-.67s-.8-.33-1.21-.48c-.41-.14-.82-.28-1.21-.41-.39-.13-.75-.29-1.06-.47-.31-.18-.56-.4-.75-.65-.19-.25-.28-.57-.28-.96,0-.3.05-.58.16-.84s.27-.49.49-.68c.21-.19.48-.34.8-.46s.68-.17,1.1-.17c.44,0,.82.05,1.13.16s.58.23.8.36c.22.13.41.25.55.36.15.11.28.16.38.16.1,0,.18-.02.25-.07.07-.05.13-.12.19-.22l.45-.89c-.48-.46-1.04-.81-1.67-1.06-.63-.24-1.33-.37-2.1-.37-.69,0-1.29.11-1.82.32s-.98.49-1.34.85-.64.76-.83,1.21c-.19.46-.28.93-.28,1.41,0,.61.09,1.12.28,1.53.19.41.44.76.75,1.03.31.28.66.5,1.06.67s.8.33,1.21.46c.41.13.81.26,1.21.38s.75.28,1.06.46c.31.18.56.4.75.67.19.27.28.61.28,1.02,0,.38-.06.72-.19,1.03-.13.31-.31.57-.55.79-.24.22-.53.39-.88.51-.35.12-.74.18-1.18.18-.35,0-.67-.03-.95-.1s-.53-.15-.76-.25c-.22-.1-.42-.21-.59-.34-.17-.12-.33-.23-.46-.34-.13-.1-.25-.19-.36-.25s-.2-.1-.28-.1c-.09,0-.17.02-.25.07-.07.05-.14.11-.19.18l-.54.88c.52.55,1.15.99,1.88,1.31.73.32,1.55.49,2.44.49.73,0,1.38-.11,1.96-.34s1.06-.53,1.45-.92Z" style="stroke-width:0px;"/><path d="m236.78,53.85l.19.92c.05.16.12.27.21.32.09.05.22.08.38.08h.76v-6.23c0-.54-.07-1.05-.22-1.5-.15-.46-.37-.84-.65-1.16-.29-.32-.64-.57-1.07-.75-.42-.18-.91-.27-1.45-.27-.76,0-1.45.13-2.07.38-.62.26-1.2.64-1.74,1.17l.31.55c.06.09.13.17.21.23.08.06.18.09.3.09.15,0,.3-.05.45-.16.15-.11.33-.22.54-.36.21-.13.46-.25.74-.36.29-.11.64-.16,1.06-.16.63,0,1.11.19,1.43.58.33.39.49.96.49,1.72v.76c-1.11.03-2.05.13-2.81.3-.76.18-1.38.4-1.86.68s-.82.59-1.03.95c-.21.36-.32.73-.32,1.11,0,.44.07.83.22,1.15.14.32.34.59.59.8.25.21.54.37.87.48.33.11.69.16,1.07.16s.71-.03,1.02-.1.59-.16.86-.29c.27-.12.53-.28.77-.46.24-.18.49-.39.75-.63Zm-2.06.19c-.25.06-.53.09-.83.09-.22,0-.43-.03-.63-.08-.2-.05-.37-.14-.51-.26-.14-.12-.26-.27-.34-.46-.08-.19-.12-.41-.12-.66,0-.27.08-.51.24-.73.16-.22.41-.41.76-.57.35-.16.8-.29,1.36-.39.55-.1,1.23-.16,2.02-.19v2.02c-.19.21-.39.39-.59.55s-.41.3-.63.41c-.22.12-.46.2-.71.26Z" style="stroke-width:0px;"/><path d="m246.53,54.78c.05.16.12.27.21.32.09.05.22.08.38.08h.76v-6.23c0-.54-.07-1.05-.22-1.5-.15-.46-.37-.84-.65-1.16-.29-.32-.64-.57-1.07-.75-.42-.18-.91-.27-1.45-.27-.76,0-1.45.13-2.07.38-.62.26-1.2.64-1.74,1.17l.31.55c.06.09.13.17.21.23.08.06.18.09.3.09.15,0,.3-.05.45-.16.15-.11.33-.22.54-.36.21-.13.46-.25.74-.36.29-.11.64-.16,1.06-.16.63,0,1.11.19,1.43.58.33.39.49.96.49,1.72v.76c-1.11.03-2.05.13-2.81.3-.76.18-1.38.4-1.86.68s-.82.59-1.03.95c-.21.36-.32.73-.32,1.11,0,.44.07.83.22,1.15.14.32.34.59.59.8.25.21.54.37.87.48.33.11.69.16,1.07.16s.71-.03,1.02-.1.59-.16.86-.29c.27-.12.53-.28.77-.46.24-.18.49-.39.75-.63l.19.92Zm-.32-1.96c-.19.21-.39.39-.59.55s-.41.3-.63.41c-.22.12-.46.2-.71.26-.25.06-.53.09-.83.09-.22,0-.43-.03-.63-.08-.2-.05-.37-.14-.51-.26-.14-.12-.26-.27-.34-.46-.08-.19-.12-.41-.12-.66,0-.27.08-.51.24-.73.16-.22.41-.41.76-.57.35-.16.8-.29,1.36-.39.55-.1,1.23-.16,2.02-.19v2.02Z" style="stroke-width:0px;"/><path d="m257.51,48.56c-.31-.27-.66-.49-1.06-.67s-.8-.33-1.21-.48c-.41-.14-.82-.28-1.21-.41-.39-.13-.75-.29-1.06-.47-.31-.18-.56-.4-.75-.65-.19-.25-.28-.57-.28-.96,0-.3.05-.58.16-.84s.27-.49.49-.68c.21-.19.48-.34.8-.46s.68-.17,1.1-.17c.44,0,.82.05,1.13.16s.58.23.8.36c.22.13.41.25.55.36.15.11.28.16.38.16.1,0,.18-.02.25-.07.07-.05.13-.12.19-.22l.45-.89c-.48-.46-1.04-.81-1.67-1.06-.63-.24-1.33-.37-2.1-.37-.69,0-1.29.11-1.82.32s-.98.49-1.34.85-.64.76-.83,1.21c-.19.46-.28.93-.28,1.41,0,.61.09,1.12.28,1.53.19.41.44.76.75,1.03.31.28.66.5,1.06.67s.8.33,1.21.46c.41.13.81.26,1.21.38s.75.28,1.06.46c.31.18.56.4.75.67.19.27.28.61.28,1.02,0,.38-.06.72-.19,1.03-.13.31-.31.57-.55.79-.24.22-.53.39-.88.51-.35.12-.74.18-1.18.18-.35,0-.67-.03-.95-.1s-.53-.15-.76-.25c-.22-.1-.42-.21-.59-.34-.17-.12-.33-.23-.46-.34-.13-.1-.25-.19-.36-.25s-.2-.1-.28-.1c-.09,0-.17.02-.25.07-.07.05-.14.11-.19.18l-.54.88c.52.55,1.15.99,1.88,1.31.73.32,1.55.49,2.44.49.73,0,1.38-.11,1.96-.34s1.06-.53,1.45-.92c.39-.39.69-.85.9-1.38.21-.53.31-1.09.31-1.7,0-.57-.09-1.05-.28-1.44-.19-.39-.44-.72-.75-.99Z" style="stroke-width:0px;"/><path d="m277.87,55.18l-2.89-2.93c.42-.62.75-1.29.97-2,.22-.71.34-1.43.35-2.17h-1.05c-.12,0-.21.04-.27.11-.06.07-.1.17-.12.29-.04.47-.14.94-.29,1.41-.15.47-.34.93-.59,1.36l-3.96-4.03c-.24-.24-.45-.47-.63-.69s-.32-.43-.43-.64-.19-.42-.25-.63c-.05-.21-.08-.42-.08-.64,0-.29.05-.56.14-.8.1-.25.24-.46.42-.64.18-.18.4-.33.66-.43s.55-.15.87-.15c.3,0,.55.05.78.14.22.1.41.22.57.37s.29.31.38.49.17.35.22.52c.1.25.26.35.47.3l1.07-.21c-.03-.38-.13-.76-.3-1.11-.18-.36-.42-.67-.72-.94-.3-.27-.66-.49-1.08-.65-.42-.16-.88-.25-1.39-.25-.57,0-1.08.09-1.54.26-.46.18-.85.42-1.17.72s-.57.66-.74,1.07c-.17.41-.25.85-.25,1.32,0,.5.09.98.28,1.45.19.46.47.95.87,1.45-.44.19-.84.42-1.2.69-.37.27-.68.57-.95.91s-.48.71-.63,1.11c-.15.4-.23.83-.23,1.27,0,.6.12,1.13.36,1.61.24.47.55.88.94,1.21.39.33.83.58,1.32.76.49.17.99.26,1.51.26.94,0,1.81-.17,2.59-.51.79-.34,1.48-.81,2.08-1.39l1.39,1.4c.13.14.26.23.38.28.12.04.27.07.45.07h1.66Zm-6.33-1.64c-.57.26-1.22.39-1.94.39-.33,0-.66-.06-.98-.17s-.61-.28-.86-.5c-.25-.22-.45-.49-.61-.8-.15-.32-.23-.68-.23-1.1,0-.6.17-1.16.51-1.67.34-.51.85-.95,1.54-1.31l4.07,4.1c-.43.44-.93.8-1.51,1.06Z" style="stroke-width:0px;"/><rect x="284.72" y="41.39" width="1.87" height="13.79" style="stroke-width:0px;"/><path d="m297.83,52.38c.21-.62.32-1.31.32-2.08s-.11-1.45-.32-2.07-.52-1.15-.93-1.58-.89-.77-1.46-1.01c-.57-.24-1.21-.36-1.92-.36s-1.36.12-1.94.36-1.06.57-1.47,1.01c-.4.44-.71.96-.93,1.58s-.32,1.31-.32,2.07.11,1.46.32,2.08.52,1.14.93,1.58c.4.44.89.77,1.47,1,.57.23,1.22.35,1.94.35s1.35-.12,1.92-.35c.57-.23,1.06-.57,1.46-1s.71-.96.93-1.58Zm-2.16.63c-.47.64-1.19.97-2.16.97s-1.7-.32-2.18-.97c-.48-.64-.72-1.54-.72-2.7,0-.58.06-1.1.18-1.55.12-.46.3-.85.54-1.16.24-.31.54-.55.9-.72.36-.17.79-.25,1.27-.25.96,0,1.68.32,2.16.97.47.65.71,1.55.71,2.71s-.24,2.05-.71,2.7Z" style="stroke-width:0px;"/><polygon points="301.35 55.18 303.2 55.18 303.2 42.96 307.67 42.96 307.67 41.39 296.87 41.39 296.87 42.96 301.35 42.96 301.35 55.18" style="stroke-width:0px;"/><polygon points="180.86 78.27 182.72 78.27 182.72 72.35 188.39 72.35 188.39 70.83 182.72 70.83 182.72 66.01 189.35 66.01 189.35 64.49 180.86 64.49 180.86 78.27" style="stroke-width:0px;"/><path d="m194.91,68.35c-.65,0-1.2.19-1.65.56-.45.38-.83.9-1.14,1.56l-.12-1.48c-.03-.17-.07-.29-.14-.37s-.2-.11-.38-.11h-.98v9.75h1.72v-6.16c.12-.33.26-.63.41-.89.15-.26.32-.48.51-.65.19-.18.4-.31.64-.4.24-.09.51-.13.82-.13.22,0,.41.02.59.06.17.04.3.06.39.06.15,0,.25-.08.29-.24l.12-1.28c-.15-.1-.32-.17-.51-.21-.19-.04-.39-.07-.59-.07Z" style="stroke-width:0px;"/><path d="m204.61,69.74c-.4-.44-.89-.77-1.46-1.01-.57-.24-1.21-.36-1.92-.36s-1.36.12-1.94.36-1.06.57-1.47,1.01c-.4.44-.71.96-.93,1.58s-.32,1.31-.32,2.07.11,1.46.32,2.08.52,1.14.93,1.58c.4.44.89.77,1.47,1,.57.23,1.22.35,1.94.35s1.35-.12,1.92-.35c.57-.23,1.06-.57,1.46-1s.71-.96.93-1.58.32-1.31.32-2.08-.11-1.45-.32-2.07-.52-1.15-.93-1.58Zm-1.23,6.36c-.47.64-1.19.97-2.16.97s-1.7-.32-2.18-.97c-.48-.64-.72-1.54-.72-2.7,0-.58.06-1.1.18-1.55.12-.46.3-.85.54-1.16.24-.31.54-.55.9-.72.36-.17.79-.25,1.27-.25.96,0,1.68.32,2.16.97.47.65.71,1.55.71,2.71s-.24,2.05-.71,2.7Z" style="stroke-width:0px;"/><path d="m215.31,69.39c-.27-.32-.61-.57-1.02-.75s-.88-.26-1.41-.26c-.35,0-.67.04-.97.11-.3.07-.58.18-.85.32-.27.14-.52.3-.75.5s-.46.41-.67.64l-.13-1.06c-.06-.24-.21-.36-.45-.36h-1.03v9.75h1.72v-7.18c.37-.42.78-.75,1.22-.99.44-.24.91-.37,1.42-.37.69,0,1.2.2,1.54.61s.5.98.5,1.72v6.21h1.72v-6.21c0-.55-.07-1.05-.21-1.51-.14-.46-.35-.84-.62-1.17Z" style="stroke-width:0px;"/><path d="m223.24,76.56c-.05,0-.11.02-.18.07s-.15.1-.25.16c-.1.06-.21.11-.34.16-.13.05-.29.07-.47.07-.31,0-.57-.1-.77-.3-.2-.2-.3-.5-.3-.91v-5.85h2.82v-1.24h-2.82v-3.36h-.87c-.11,0-.2.03-.26.09-.07.06-.11.14-.13.24l-.39,3.01-1.6.2v.68c0,.13.04.22.11.28.07.06.16.09.26.09h1.17v5.96c0,.81.21,1.43.62,1.86.41.43,1.01.64,1.78.64.44,0,.87-.08,1.29-.24s.77-.37,1.07-.65l-.5-.82c-.07-.11-.15-.16-.24-.16Z" style="stroke-width:0px;"/><path d="m232.38,69.51c-.36-.37-.79-.65-1.29-.85-.5-.2-1.04-.29-1.62-.29-.71,0-1.34.12-1.91.37-.56.25-1.04.59-1.43,1.02-.39.43-.69.94-.9,1.53-.21.59-.31,1.23-.31,1.91,0,.84.12,1.58.35,2.23.23.65.55,1.19.97,1.63.41.44.9.77,1.47,1s1.19.34,1.86.34c.35,0,.71-.03,1.07-.09.36-.06.71-.15,1.04-.27.34-.12.65-.28.95-.47s.55-.41.76-.67l-.48-.62c-.08-.11-.19-.16-.33-.16-.11,0-.24.05-.39.15s-.34.21-.56.32-.49.22-.8.32-.68.15-1.11.15c-.46,0-.88-.08-1.25-.23s-.69-.38-.96-.68-.48-.68-.63-1.14c-.15-.46-.24-.99-.25-1.61h6.51c.16,0,.27-.04.33-.13s.09-.27.09-.54c0-.69-.1-1.31-.31-1.85s-.49-1-.85-1.37Zm-5.71,2.82c.12-.85.41-1.51.89-1.99.48-.48,1.13-.72,1.95-.72.39,0,.74.07,1.05.2.31.13.57.32.78.56s.38.53.49.86c.11.33.17.69.17,1.09h-5.33Z" style="stroke-width:0px;"/><path d="m242.93,69.39c-.27-.32-.61-.57-1.02-.75s-.88-.26-1.41-.26c-.35,0-.67.04-.97.11-.3.07-.58.18-.85.32-.27.14-.52.3-.75.5s-.46.41-.67.64l-.13-1.06c-.06-.24-.21-.36-.45-.36h-1.03v9.75h1.72v-7.18c.37-.42.78-.75,1.22-.99.44-.24.91-.37,1.42-.37.69,0,1.2.2,1.54.61s.5.98.5,1.72v6.21h1.72v-6.21c0-.55-.07-1.05-.21-1.51-.14-.46-.35-.84-.62-1.17Z" style="stroke-width:0px;"/><path d="m252.73,69.5c-.33-.36-.71-.64-1.14-.84s-.94-.3-1.53-.3c-.65,0-1.24.13-1.77.39-.52.26-.96.62-1.32,1.07s-.63.99-.83,1.61-.29,1.29-.29,2.01c0,.81.09,1.52.26,2.15.17.62.42,1.14.74,1.56.32.42.71.73,1.16.95s.96.32,1.52.32c.7,0,1.31-.15,1.85-.46s1.01-.71,1.42-1.21l.15,1.18c.06.24.22.36.46.36h1.02v-14.17h-1.71v5.4Zm0,6.05c-.35.47-.74.83-1.16,1.09-.42.26-.91.38-1.48.38-.39,0-.74-.07-1.05-.2-.31-.13-.57-.35-.78-.64s-.37-.66-.48-1.12c-.11-.45-.16-1-.16-1.63,0-1.2.24-2.12.73-2.77s1.18-.97,2.09-.97c.46,0,.88.08,1.25.25.37.17.72.47,1.04.9v4.71Z" style="stroke-width:0px;"/><path d="m272.56,66.39c-.6-.61-1.31-1.08-2.15-1.41s-1.76-.5-2.78-.5h-5.15v13.79h5.15c1.01,0,1.94-.17,2.78-.5.84-.33,1.55-.8,2.15-1.4.6-.6,1.06-1.33,1.39-2.17s.49-1.79.49-2.82-.16-1.97-.49-2.82-.79-1.57-1.39-2.18Zm-.38,7.27c-.23.67-.56,1.23-.98,1.69-.42.46-.94.81-1.54,1.05-.6.24-1.28.37-2.02.37h-3.28v-10.77h3.28c.74,0,1.42.12,2.02.37.6.24,1.12.6,1.54,1.06.42.46.75,1.03.98,1.69.23.67.35,1.42.35,2.27s-.12,1.6-.35,2.27Z" style="stroke-width:0px;"/><path d="m283.48,69.51c-.36-.37-.79-.65-1.29-.85-.5-.2-1.04-.29-1.62-.29-.71,0-1.34.12-1.91.37-.56.25-1.04.59-1.43,1.02-.39.43-.69.94-.9,1.53-.21.59-.31,1.23-.31,1.91,0,.84.12,1.58.35,2.23.23.65.55,1.19.97,1.63.41.44.9.77,1.47,1s1.19.34,1.86.34c.35,0,.71-.03,1.07-.09.36-.06.71-.15,1.04-.27.34-.12.65-.28.95-.47s.55-.41.76-.67l-.48-.62c-.08-.11-.19-.16-.33-.16-.11,0-.24.05-.39.15s-.34.21-.56.32-.49.22-.8.32-.68.15-1.11.15c-.46,0-.88-.08-1.25-.23s-.69-.38-.96-.68-.48-.68-.63-1.14c-.15-.46-.24-.99-.25-1.61h6.51c.16,0,.27-.04.33-.13s.09-.27.09-.54c0-.69-.1-1.31-.31-1.85s-.49-1-.85-1.37Zm-5.71,2.82c.12-.85.41-1.51.89-1.99.48-.48,1.13-.72,1.95-.72.39,0,.74.07,1.05.2.31.13.57.32.78.56s.38.53.49.86c.11.33.17.69.17,1.09h-5.33Z" style="stroke-width:0px;"/><path d="m293.22,68.63c-.09.07-.15.15-.19.25l-2.5,6.27c-.08.24-.15.47-.21.69s-.11.45-.16.67c-.05-.22-.11-.45-.16-.67s-.12-.46-.2-.69l-2.47-6.27c-.03-.1-.09-.18-.18-.25s-.21-.11-.35-.11h-1.39l3.97,9.75h1.54l3.97-9.75h-1.34c-.12,0-.23.03-.32.1Z" style="stroke-width:0px;"/><path d="m303.09,69.51c-.36-.37-.79-.65-1.29-.85-.5-.2-1.04-.29-1.62-.29-.71,0-1.34.12-1.91.37-.56.25-1.04.59-1.43,1.02-.39.43-.69.94-.9,1.53-.21.59-.31,1.23-.31,1.91,0,.84.12,1.58.35,2.23.23.65.55,1.19.97,1.63.41.44.9.77,1.47,1s1.19.34,1.86.34c.35,0,.71-.03,1.07-.09.36-.06.71-.15,1.04-.27.34-.12.65-.28.95-.47s.55-.41.76-.67l-.48-.62c-.08-.11-.19-.16-.33-.16-.11,0-.24.05-.39.15s-.34.21-.56.32-.49.22-.8.32-.68.15-1.11.15c-.46,0-.88-.08-1.25-.23s-.69-.38-.96-.68-.48-.68-.63-1.14c-.15-.46-.24-.99-.25-1.61h6.51c.16,0,.27-.04.33-.13s.09-.27.09-.54c0-.69-.1-1.31-.31-1.85s-.49-1-.85-1.37Zm-5.71,2.82c.12-.85.41-1.51.89-1.99.48-.48,1.13-.72,1.95-.72.39,0,.74.07,1.05.2.31.13.57.32.78.56s.38.53.49.86c.11.33.17.69.17,1.09h-5.33Z" style="stroke-width:0px;"/><rect x="306.4" y="64.1" width="1.71" height="14.17" style="stroke-width:0px;"/><path d="m318.38,69.74c-.4-.44-.89-.77-1.46-1.01-.57-.24-1.21-.36-1.92-.36s-1.36.12-1.94.36-1.06.57-1.47,1.01c-.4.44-.71.96-.93,1.58s-.32,1.31-.32,2.07.11,1.46.32,2.08.52,1.14.93,1.58c.4.44.89.77,1.47,1,.57.23,1.22.35,1.94.35s1.35-.12,1.92-.35c.57-.23,1.06-.57,1.46-1s.71-.96.93-1.58.32-1.31.32-2.08-.11-1.45-.32-2.07-.52-1.15-.93-1.58Zm-1.23,6.36c-.47.64-1.19.97-2.16.97s-1.7-.32-2.18-.97c-.48-.64-.72-1.54-.72-2.7,0-.58.06-1.1.18-1.55.12-.46.3-.85.54-1.16.24-.31.54-.55.9-.72.36-.17.79-.25,1.27-.25.96,0,1.68.32,2.16.97.47.65.71,1.55.71,2.71s-.24,2.05-.71,2.7Z" style="stroke-width:0px;"/><path d="m329.4,69.63c-.32-.42-.71-.74-1.16-.95-.46-.21-.96-.32-1.53-.32-.69,0-1.31.15-1.85.46s-1.01.72-1.42,1.22l-.15-1.15c-.06-.24-.21-.36-.45-.36h-1.03v13.05h1.72v-4.31c.33.36.7.64,1.13.84.43.2.94.3,1.54.3.65,0,1.24-.13,1.77-.39.52-.26.96-.62,1.33-1.07s.64-.99.83-1.61c.19-.62.29-1.29.29-2.01,0-.81-.09-1.52-.26-2.15s-.42-1.14-.74-1.56Zm-1.5,6.48c-.49.65-1.19.97-2.1.97-.46,0-.88-.09-1.25-.26-.37-.17-.72-.47-1.03-.89v-4.71c.35-.47.74-.83,1.16-1.09s.91-.38,1.47-.38c.39,0,.74.07,1.05.2.31.13.57.35.78.64.21.29.37.67.49,1.12s.17,1,.17,1.64c0,1.2-.24,2.12-.73,2.77Z" style="stroke-width:0px;"/><path d="m339.49,69.51c-.36-.37-.79-.65-1.29-.85-.5-.2-1.04-.29-1.62-.29-.71,0-1.34.12-1.91.37-.56.25-1.04.59-1.43,1.02-.39.43-.69.94-.9,1.53-.21.59-.31,1.23-.31,1.91,0,.84.12,1.58.35,2.23.23.65.55,1.19.97,1.63.41.44.9.77,1.47,1s1.19.34,1.86.34c.35,0,.71-.03,1.07-.09.36-.06.71-.15,1.04-.27.34-.12.65-.28.95-.47s.55-.41.76-.67l-.48-.62c-.08-.11-.19-.16-.33-.16-.11,0-.24.05-.39.15s-.34.21-.56.32-.49.22-.8.32-.68.15-1.11.15c-.46,0-.88-.08-1.25-.23s-.69-.38-.96-.68-.48-.68-.63-1.14c-.15-.46-.24-.99-.25-1.61h6.51c.16,0,.27-.04.33-.13s.09-.27.09-.54c0-.69-.1-1.31-.31-1.85s-.49-1-.85-1.37Zm-5.71,2.82c.12-.85.41-1.51.89-1.99.48-.48,1.13-.72,1.95-.72.39,0,.74.07,1.05.2.31.13.57.32.78.56s.38.53.49.86c.11.33.17.69.17,1.09h-5.33Z" style="stroke-width:0px;"/><path d="m347.15,68.35c-.65,0-1.2.19-1.65.56-.45.38-.83.9-1.14,1.56l-.12-1.48c-.03-.17-.07-.29-.14-.37s-.2-.11-.38-.11h-.98v9.75h1.72v-6.16c.12-.33.26-.63.41-.89.15-.26.32-.48.51-.65.19-.18.4-.31.64-.4.24-.09.51-.13.82-.13.22,0,.41.02.59.06.17.04.3.06.39.06.15,0,.25-.08.29-.24l.12-1.28c-.15-.1-.32-.17-.51-.21-.19-.04-.39-.07-.59-.07Z" style="stroke-width:0px;"/></g></svg>