<?xml version="1.0" encoding="UTF-8"?><svg id="Layer_2" xmlns="http://www.w3.org/2000/svg" viewBox="0 0 85.02 83.25"><g id="Layer_1-2"><path d="m30.28.91c-2.8-.6-5.88-.91-9.25-.91-3.7,0-6.89.4-9.55,1.2-2.65.78-4.83,1.86-6.53,3.21-1.72,1.37-2.97,2.98-3.76,4.84-.8,1.84-1.2,3.81-1.2,5.88,0,2.77.57,5.12,1.72,7.03,1.16,1.91,2.59,3.5,4.34,4.78,1.59,1.18,3.32,2.14,5.2,2.89-.02-.42-.02-.85-.02-1.29,0-3.48.48-6.73,1.43-9.78-.17-.19-.32-.38-.47-.58-.64-.9-.96-1.97-.96-3.22,0-1.75.85-3.19,2.56-4.34,1.07-.71,2.52-1.23,4.35-1.5.04-.05.09-.08.13-.14,2.32-2.46,5.2-4.39,8.62-5.77,1.87-.75,3.85-1.31,6-1.66-.86-.25-1.73-.47-2.61-.66Z" style="fill:#121212; stroke-width:0px;"/><path d="m85.02,7.01v24.56c0,7.56-6.15,13.67-13.71,13.63h0c0-4.54-3.68-8.22-8.22-8.22h-17.61v7.16c-.56.18-1.14.34-1.71.46-1.94.43-3.6.65-4.99.65-3.73,0-6.71-.88-8.99-2.64.64-.85.96-1.86.96-3.08,0-1.03-.29-1.9-.83-2.61-.56-.73-1.31-1.34-2.25-1.88-.8-.45-1.69-.85-2.67-1.19-.24-1.32-.34-2.72-.34-4.23s.11-2.76.31-4.01c1.71.54,3.45,1.15,5.2,1.82,1.8.7,3.41,1.57,4.87,2.65.36.26.69.54,1.02.83V14.12c.86-.11,1.77-.16,2.73-.16,2.3,0,4.52.33,6.7,1.01h0c0,6.19,5.02,11.21,11.21,11.21h9.15c3.02,0,5.47-2.45,5.47-5.47h0c0-7.57,6.14-13.71,13.71-13.71h0Z" style="fill:#606161; stroke-width:0px;"/><path d="m30.66,13.23c-1.69.71-3.13,1.75-4.29,3.1-1.79,2.06-2.92,4.72-3.41,7.95-.03-.01-.06-.01-.1-.03-1.23-.37-2.43-.77-3.61-1.19-1.16-.43-2.22-.93-3.14-1.49-.7-.44-1.32-.94-1.82-1.52.1-.31.19-.62.3-.93,1.02-2.83,2.51-5.32,4.45-7.42.91-.12,1.93-.19,3.05-.19,1.79,0,3.72.22,5.82.65.85.16,1.8.59,2.74,1.08Z" style="fill:#515251; stroke-width:0px;"/><path d="m28.06,42.23c-.48.65-1.15,1.21-1.98,1.65-1.88,1-4.18,1.53-6.89,1.58l-.03-.03c-2.01-2.14-3.53-4.64-4.56-7.55-.91-2.58-1.4-5.32-1.52-8.26-.02-.37-.02-.74-.02-1.12,0-3.01.41-5.82,1.23-8.46.49.58,1.12,1.08,1.82,1.52.93.56,1.98,1.06,3.14,1.49,1.18.43,2.38.83,3.61,1.19.03.01.06.01.1.03-.22,1.31-.34,2.73-.34,4.23,0,1.59.11,3.08.37,4.47.53,3.11,1.66,5.68,3.41,7.7.51.59,1.05,1.11,1.66,1.56Z" style="fill:#6b6b6b; stroke-width:0px;"/><path d="m36.66,2.84c.7-.04,1.42-.07,2.15-.07,2.7,0,5.17.25,7.42.75.13.03.26.06.38.1v7.43c-2.3-.72-4.64-1.08-7.07-1.08-1.02,0-1.98.06-2.89.18-1.47.21-2.81.56-4.01,1.08-.94-.49-1.9-.91-2.74-1.08-2.11-.43-4.04-.65-5.82-.65-1.12,0-2.14.07-3.05.19.03-.04.08-.07.11-.12,2.01-2.14,4.5-3.8,7.47-5,1.61-.65,3.34-1.14,5.2-1.43" style="fill:#6b6b6b; stroke-width:0px;"/><path d="m30.94,53.46c-1.16-.27-2.27-.6-3.32-1.03-2.95-1.21-5.44-2.86-7.44-4.97,2.71-.04,5.01-.58,6.89-1.58.83-.44,1.5-1,1.98-1.65,2.41,1.86,5.55,2.79,9.49,2.79,1.47,0,3.22-.22,5.27-.68.61-.13,1.21-.29,1.8-.49v7.49s-.08.01-.11.03c-2.44.58-4.99.86-7.69.86-.73,0-1.45-.03-2.15-.07" style="fill:#515251; stroke-width:0px;"/><path d="m7.73,67.55v-5.79h3.91v.68h-3.14v1.79h2.72v.68h-2.72v2.63h-.77Z" style="fill:#231f20; stroke-width:0px;"/><path d="m12.65,67.55v-5.79h4.19v.68h-3.42v1.77h3.2v.68h-3.2v1.97h3.56v.68h-4.32Z" style="fill:#231f20; stroke-width:0px;"/><path d="m18,67.55v-5.79h.77v5.11h2.85v.68h-3.62Z" style="fill:#231f20; stroke-width:0px;"/><path d="m22.66,67.55v-5.79h.77v5.79h-.77Z" style="fill:#231f20; stroke-width:0px;"/><path d="m24.19,67.55l2.24-3.02-1.98-2.77h.91l1.05,1.49c.22.31.37.55.47.71.13-.21.28-.43.46-.66l1.17-1.54h.83l-2.03,2.73,2.19,3.06h-.95l-1.46-2.07c-.08-.12-.17-.25-.25-.39-.13.21-.22.36-.28.43l-1.45,2.02h-.92Z" style="fill:#231f20; stroke-width:0px;"/><path d="m31.34,67.55l2.22-5.79h.83l2.37,5.79h-.87l-.68-1.75h-2.42l-.64,1.75h-.81Zm1.67-2.38h1.96l-.6-1.6c-.18-.49-.32-.89-.41-1.2-.07.37-.18.74-.31,1.11l-.64,1.7Z" style="fill:#231f20; stroke-width:0px;"/><path d="m37.48,67.55v-.81h.81v.81h-.81Z" style="fill:#231f20; stroke-width:0px;"/><path d="m41.61,65.69l.72-.06c.03.29.11.53.24.71.12.19.32.34.58.45.26.11.56.17.89.17.29,0,.55-.04.77-.13.22-.09.39-.21.5-.36.11-.15.16-.32.16-.5s-.05-.34-.16-.48c-.1-.14-.28-.25-.52-.34-.16-.06-.5-.15-1.03-.28-.53-.13-.9-.25-1.12-.36-.28-.14-.48-.32-.62-.54-.14-.21-.2-.46-.2-.72,0-.29.08-.57.25-.82.17-.25.41-.45.73-.58.32-.13.67-.2,1.06-.2.43,0,.81.07,1.14.21.33.14.58.34.76.61.18.27.27.57.28.91l-.73.06c-.04-.37-.17-.64-.4-.83-.23-.19-.56-.28-1.01-.28s-.8.08-1.01.25c-.21.17-.32.38-.32.61,0,.21.08.38.23.51.15.13.53.27,1.16.41.62.14,1.05.26,1.28.37.34.16.59.35.75.59s.24.51.24.82-.09.6-.26.87c-.18.27-.43.48-.76.64-.33.15-.7.23-1.12.23-.52,0-.96-.08-1.32-.23-.35-.15-.63-.38-.83-.69-.2-.31-.31-.65-.32-1.04Z" style="fill:#231f20; stroke-width:0px;"/><path d="m51.4,65.52l.77.19c-.16.63-.45,1.11-.87,1.44s-.93.5-1.53.5-1.13-.13-1.52-.38c-.39-.25-.69-.62-.89-1.1s-.31-1-.31-1.55c0-.6.12-1.13.35-1.58.23-.45.56-.79.98-1.02s.89-.35,1.4-.35c.58,0,1.07.15,1.46.44s.67.71.83,1.24l-.75.18c-.13-.42-.33-.73-.58-.92-.26-.19-.58-.29-.96-.29-.45,0-.82.11-1.12.32s-.51.5-.63.86c-.12.36-.18.73-.18,1.11,0,.49.07.92.22,1.29.14.37.37.64.67.82.3.18.63.27.98.27.43,0,.79-.12,1.09-.37.3-.25.5-.62.6-1.1Z" style="fill:#231f20; stroke-width:0px;"/><path d="m53.13,67.55v-5.79h.77v2.38h3.01v-2.38h.77v5.79h-.77v-2.73h-3.01v2.73h-.77Z" style="fill:#231f20; stroke-width:0px;"/><path d="m62.75,61.76h.77v3.35c0,.58-.07,1.04-.2,1.39-.13.34-.37.62-.71.84s-.79.32-1.35.32-.99-.09-1.33-.28c-.35-.19-.59-.46-.74-.81-.15-.35-.22-.84-.22-1.45v-3.35h.77v3.34c0,.5.05.87.14,1.11.09.24.25.42.48.55.23.13.51.19.84.19.56,0,.96-.13,1.2-.38s.36-.75.36-1.47v-3.34Z" style="fill:#231f20; stroke-width:0px;"/><path d="m64.76,67.55v-5.79h.77v5.11h2.85v.68h-3.62Z" style="fill:#231f20; stroke-width:0px;"/><path d="m70.17,67.55v-5.11h-1.91v-.68h4.59v.68h-1.92v5.11h-.77Z" style="fill:#231f20; stroke-width:0px;"/><path d="m73.17,67.55v-.71l2.97-3.71c.21-.26.41-.49.6-.69h-3.23v-.68h4.15v.68l-3.25,4.02-.35.41h3.7v.68h-4.58Z" style="fill:#231f20; stroke-width:0px;"/><path d="m19.36,76.48v-3.84h2.59v.45h-2.08v1.19h1.8v.45h-1.8v1.74h-.51Z" style="fill:#231f20; stroke-width:0px;"/><path d="m24.38,76.48v-.41c-.22.31-.51.47-.88.47-.16,0-.32-.03-.46-.09-.14-.06-.25-.14-.32-.24-.07-.1-.12-.21-.15-.35-.02-.09-.03-.24-.03-.44v-1.72h.47v1.54c0,.25,0,.41.03.5.03.12.09.22.19.29.1.07.21.11.36.11s.27-.04.4-.11c.12-.07.21-.17.26-.3.05-.12.08-.31.08-.54v-1.49h.47v2.78h-.42Z" style="fill:#231f20; stroke-width:0px;"/><path d="m25.53,76.48v-3.84h.47v3.84h-.47Z" style="fill:#231f20; stroke-width:0px;"/><path d="m26.72,76.48v-3.84h.47v3.84h-.47Z" style="fill:#231f20; stroke-width:0px;"/><path d="m27.73,75.65l.47-.07c.03.19.1.33.22.43.12.1.29.15.5.15s.38-.04.48-.13c.1-.09.16-.19.16-.31,0-.11-.05-.19-.14-.25-.06-.04-.23-.1-.48-.16-.35-.09-.59-.16-.72-.23-.13-.06-.23-.15-.3-.26-.07-.11-.1-.24-.1-.37,0-.12.03-.24.08-.34s.13-.19.23-.26c.07-.05.17-.1.3-.14.13-.04.26-.06.41-.06.22,0,.41.03.57.09s.29.15.37.26c.08.11.13.25.16.43l-.46.06c-.02-.14-.08-.25-.18-.33-.1-.08-.24-.12-.43-.12-.22,0-.37.04-.46.11-.09.07-.14.16-.14.25,0,.06.02.12.06.17.04.05.1.09.18.13.05.02.19.06.42.12.33.09.57.16.7.22s.24.14.31.25c.08.11.11.24.11.4s-.05.3-.14.44c-.09.14-.22.25-.4.32-.17.08-.37.11-.59.11-.36,0-.64-.08-.83-.23-.19-.15-.31-.37-.36-.67Z" style="fill:#231f20; stroke-width:0px;"/><path d="m31.63,76.06l.07.42c-.13.03-.25.04-.36.04-.17,0-.3-.03-.4-.08s-.16-.13-.2-.21c-.04-.09-.06-.27-.06-.56v-1.6h-.35v-.37h.35v-.69l.47-.28v.97h.47v.37h-.47v1.63c0,.13,0,.22.02.26.02.04.04.07.08.09.04.02.09.03.16.03.05,0,.12,0,.21-.02Z" style="fill:#231f20; stroke-width:0px;"/><path d="m33.91,76.14c-.17.15-.34.25-.5.31-.16.06-.33.09-.52.09-.31,0-.54-.07-.7-.22s-.25-.34-.25-.57c0-.14.03-.26.09-.37.06-.11.14-.2.24-.27.1-.07.21-.12.34-.15.09-.02.23-.05.42-.07.38-.04.66-.1.84-.16,0-.06,0-.11,0-.12,0-.19-.04-.33-.13-.41-.12-.11-.3-.16-.54-.16-.22,0-.39.04-.49.12-.11.08-.18.22-.23.41l-.46-.06c.04-.2.11-.36.21-.48.1-.12.23-.21.42-.28s.39-.1.63-.1.43.03.58.08c.15.06.26.13.33.21.07.08.12.19.15.32.02.08.02.23.02.43v.63c0,.44,0,.72.03.83.02.12.06.23.12.33h-.49c-.05-.1-.08-.21-.09-.34Zm-.04-1.05c-.17.07-.43.13-.77.18-.19.03-.33.06-.41.09-.08.04-.14.09-.19.15-.04.07-.07.14-.07.22,0,.13.05.23.14.31s.23.13.42.13.34-.04.48-.12c.14-.08.25-.19.31-.33.05-.11.08-.26.08-.47v-.17Z" style="fill:#231f20; stroke-width:0px;"/><path d="m36.89,75.46l.46.06c-.05.32-.18.57-.39.75-.21.18-.46.27-.77.27-.38,0-.69-.12-.92-.37-.23-.25-.35-.6-.35-1.07,0-.3.05-.56.15-.79s.25-.39.45-.51c.2-.11.42-.17.66-.17.3,0,.55.08.74.23.19.15.31.37.37.65l-.46.07c-.04-.19-.12-.33-.23-.42-.11-.09-.25-.14-.4-.14-.24,0-.43.08-.58.26-.15.17-.22.44-.22.81s.07.65.21.81.33.25.56.25c.19,0,.34-.06.46-.17.12-.11.2-.29.24-.52Z" style="fill:#231f20; stroke-width:0px;"/><path d="m37.76,76.48v-3.84h.47v2.19l1.12-1.13h.61l-1.06,1.03,1.17,1.75h-.58l-.92-1.42-.33.32v1.1h-.47Z" style="fill:#231f20; stroke-width:0px;"/><path d="m41.99,76.48v-3.84h1.32c.3,0,.53.02.68.06.22.05.41.14.56.27.2.17.35.39.45.66.1.27.15.57.15.91,0,.29-.03.55-.1.77s-.16.41-.26.56c-.11.15-.22.26-.35.35-.13.08-.28.15-.46.19-.18.04-.38.07-.62.07h-1.39Zm.51-.45h.82c.25,0,.45-.02.6-.07.14-.05.26-.11.34-.2.12-.12.21-.28.28-.49.07-.2.1-.45.1-.74,0-.4-.07-.71-.2-.93-.13-.22-.29-.36-.48-.43-.14-.05-.35-.08-.66-.08h-.81v2.93Z" style="fill:#231f20; stroke-width:0px;"/><path d="m47.71,75.58l.49.06c-.08.28-.22.51-.43.66-.21.16-.47.24-.8.24-.41,0-.73-.13-.97-.38-.24-.25-.36-.6-.36-1.05s.12-.83.36-1.09c.24-.26.55-.39.94-.39s.68.13.91.38c.24.25.35.61.35,1.07,0,.03,0,.07,0,.13h-2.07c.02.31.1.54.26.7.16.16.35.24.58.24.17,0,.32-.05.44-.14s.22-.24.29-.43Zm-1.55-.76h1.55c-.02-.23-.08-.41-.18-.53-.15-.18-.34-.27-.58-.27-.22,0-.4.07-.55.22s-.23.34-.24.58Z" style="fill:#231f20; stroke-width:0px;"/><path d="m49.56,76.48l-1.06-2.78h.5l.6,1.67c.06.18.12.37.18.56.04-.15.1-.32.18-.53l.62-1.7h.48l-1.05,2.78h-.44Z" style="fill:#231f20; stroke-width:0px;"/><path d="m53.37,75.58l.49.06c-.08.28-.22.51-.43.66-.21.16-.47.24-.8.24-.41,0-.73-.13-.97-.38-.24-.25-.36-.6-.36-1.05s.12-.83.36-1.09c.24-.26.55-.39.94-.39s.68.13.91.38c.24.25.35.61.35,1.07,0,.03,0,.07,0,.13h-2.07c.02.31.1.54.26.7.16.16.35.24.58.24.17,0,.32-.05.44-.14s.22-.24.29-.43Zm-1.55-.76h1.55c-.02-.23-.08-.41-.18-.53-.15-.18-.34-.27-.58-.27-.22,0-.4.07-.55.22s-.23.34-.24.58Z" style="fill:#231f20; stroke-width:0px;"/><path d="m54.44,76.48v-3.84h.47v3.84h-.47Z" style="fill:#231f20; stroke-width:0px;"/><path d="m55.47,75.09c0-.52.14-.9.43-1.14.24-.21.53-.31.88-.31.38,0,.69.13.94.38s.36.6.36,1.04c0,.36-.05.64-.16.84s-.26.36-.47.48c-.21.11-.43.17-.67.17-.39,0-.7-.12-.94-.37-.24-.25-.36-.61-.36-1.08Zm.48,0c0,.36.08.62.23.8.16.18.35.27.59.27s.43-.09.58-.27.23-.45.23-.81c0-.34-.08-.6-.23-.78s-.35-.27-.58-.27-.43.09-.59.26c-.16.18-.23.44-.23.8Z" style="fill:#231f20; stroke-width:0px;"/><path d="m58.62,77.54v-3.85h.43v.36c.1-.14.22-.25.34-.32s.28-.11.46-.11c.24,0,.45.06.63.18.18.12.32.29.41.52.09.22.14.47.14.73,0,.28-.05.54-.15.77-.1.23-.25.4-.45.52-.19.12-.4.18-.61.18-.16,0-.3-.03-.42-.1-.12-.07-.23-.15-.31-.25v1.35h-.47Zm.43-2.44c0,.36.07.62.22.79.14.17.32.26.53.26s.39-.09.54-.27c.15-.18.22-.45.22-.82s-.07-.62-.22-.8c-.15-.18-.32-.26-.52-.26s-.38.09-.53.28c-.15.19-.23.46-.23.82Z" style="fill:#231f20; stroke-width:0px;"/><path d="m63.51,75.58l.49.06c-.08.28-.22.51-.43.66-.21.16-.47.24-.8.24-.41,0-.73-.13-.97-.38-.24-.25-.36-.6-.36-1.05s.12-.83.36-1.09c.24-.26.55-.39.94-.39s.68.13.91.38c.24.25.35.61.35,1.07,0,.03,0,.07,0,.13h-2.07c.02.31.1.54.26.7.16.16.35.24.58.24.17,0,.32-.05.44-.14s.22-.24.29-.43Zm-1.55-.76h1.55c-.02-.23-.08-.41-.18-.53-.15-.18-.34-.27-.58-.27-.22,0-.4.07-.55.22s-.23.34-.24.58Z" style="fill:#231f20; stroke-width:0px;"/><path d="m64.58,76.48v-2.78h.42v.42c.11-.2.21-.33.3-.39.09-.06.19-.09.3-.09.16,0,.32.05.48.15l-.16.44c-.12-.07-.23-.1-.35-.1-.1,0-.2.03-.28.09s-.14.15-.18.26c-.05.17-.08.35-.08.55v1.46h-.47Z" style="fill:#231f20; stroke-width:0px;"/><path d="m27.68,82.19v-3.59h1.35c.24,0,.42.01.55.03.18.03.32.09.44.17.12.08.21.2.29.35s.11.31.11.49c0,.31-.1.56-.29.77-.19.21-.54.32-1.05.32h-.92v1.46h-.47Zm.47-1.88h.93c.31,0,.52-.06.65-.17.13-.11.19-.27.19-.48,0-.15-.04-.28-.11-.39-.08-.11-.18-.18-.3-.21-.08-.02-.23-.03-.44-.03h-.92v1.28Z" style="fill:#231f20; stroke-width:0px;"/><path d="m30.97,82.19v-3.59h.44v1.29c.21-.24.46-.36.78-.36.19,0,.36.04.5.11.14.08.24.18.3.31.06.13.09.33.09.58v1.65h-.44v-1.65c0-.22-.05-.38-.14-.48-.1-.1-.23-.15-.4-.15-.13,0-.25.03-.37.1-.11.07-.2.16-.25.28-.05.12-.07.28-.07.48v1.42h-.44Z" style="fill:#231f20; stroke-width:0px;"/><path d="m33.59,80.89c0-.48.13-.84.4-1.07.22-.19.5-.29.82-.29.36,0,.65.12.88.35.23.23.34.56.34.97,0,.33-.05.6-.15.79-.1.19-.25.34-.44.45-.19.11-.4.16-.63.16-.36,0-.66-.12-.88-.35-.22-.23-.34-.57-.34-1.01Zm.45,0c0,.33.07.58.22.75.15.17.33.25.55.25s.4-.08.55-.25c.15-.17.22-.42.22-.76,0-.32-.07-.56-.22-.73-.15-.17-.33-.25-.54-.25s-.4.08-.55.25c-.15.17-.22.41-.22.75Z" style="fill:#231f20; stroke-width:0px;"/><path d="m37.5,81.8l.06.39c-.12.03-.23.04-.33.04-.16,0-.28-.03-.37-.08-.09-.05-.15-.12-.19-.2-.04-.08-.05-.26-.05-.52v-1.49h-.32v-.34h.32v-.64l.44-.26v.91h.44v.34h-.44v1.52c0,.13,0,.21.02.24.02.04.04.06.08.09.04.02.09.03.15.03.05,0,.11,0,.19-.02Z" style="fill:#231f20; stroke-width:0px;"/><path d="m37.77,80.89c0-.48.13-.84.4-1.07.22-.19.5-.29.82-.29.36,0,.65.12.88.35.23.23.34.56.34.97,0,.33-.05.6-.15.79-.1.19-.25.34-.44.45-.19.11-.4.16-.63.16-.36,0-.66-.12-.88-.35-.22-.23-.34-.57-.34-1.01Zm.45,0c0,.33.07.58.22.75.15.17.33.25.55.25s.4-.08.55-.25c.15-.17.22-.42.22-.76,0-.32-.07-.56-.22-.73-.15-.17-.33-.25-.54-.25s-.4.08-.55.25c-.15.17-.22.41-.22.75Z" style="fill:#231f20; stroke-width:0px;"/><path d="m40.64,82.41l.43.06c.02.13.07.23.15.29.11.08.26.12.45.12.2,0,.36-.04.47-.12s.19-.2.23-.34c.02-.09.03-.28.03-.56-.19.23-.43.34-.72.34-.36,0-.63-.13-.83-.39-.2-.26-.29-.57-.29-.93,0-.25.04-.48.13-.69.09-.21.22-.37.39-.49.17-.11.37-.17.6-.17.31,0,.56.12.76.37v-.31h.41v2.25c0,.4-.04.69-.12.86-.08.17-.21.3-.39.4-.18.1-.4.15-.66.15-.31,0-.56-.07-.75-.21s-.28-.35-.28-.63Zm.36-1.56c0,.34.07.59.2.75.14.16.31.23.51.23s.37-.08.51-.23c.14-.16.21-.4.21-.73s-.07-.56-.21-.72c-.14-.16-.31-.24-.51-.24s-.36.08-.5.24c-.14.16-.21.4-.21.71Z" style="fill:#231f20; stroke-width:0px;"/><path d="m43.5,82.19v-2.6h.4v.39c.1-.18.19-.31.28-.36.09-.06.18-.09.28-.09.15,0,.3.05.45.14l-.15.41c-.11-.06-.22-.1-.32-.1-.1,0-.18.03-.26.09-.08.06-.13.14-.16.24-.05.16-.07.33-.07.51v1.36h-.44Z" style="fill:#231f20; stroke-width:0px;"/><path d="m46.87,81.87c-.16.14-.32.24-.47.29s-.31.09-.49.09c-.29,0-.5-.07-.66-.21-.15-.14-.23-.32-.23-.53,0-.13.03-.24.09-.35.06-.1.13-.19.23-.25.09-.06.2-.11.32-.14.09-.02.22-.04.39-.07.36-.04.62-.09.79-.15,0-.06,0-.1,0-.11,0-.18-.04-.31-.12-.38-.11-.1-.28-.15-.5-.15-.21,0-.36.04-.46.11-.1.07-.17.2-.22.39l-.43-.06c.04-.18.1-.33.19-.45s.22-.2.39-.26c.17-.06.37-.09.59-.09s.4.03.54.08.24.12.31.2c.06.08.11.18.14.3.01.08.02.21.02.41v.59c0,.41,0,.67.03.78.02.11.06.21.11.31h-.46c-.05-.09-.08-.2-.09-.32Zm-.04-.98c-.16.06-.4.12-.72.17-.18.03-.31.06-.38.09-.08.03-.13.08-.17.14-.04.06-.06.13-.06.21,0,.12.04.22.13.29.09.08.22.12.39.12s.32-.04.45-.11c.13-.07.23-.18.29-.3.05-.1.07-.25.07-.44v-.16Z" style="fill:#231f20; stroke-width:0px;"/><path d="m47.96,83.19v-3.59h.4v.34c.09-.13.2-.23.32-.3.12-.07.26-.1.43-.1.22,0,.42.06.59.17.17.11.3.27.38.48s.13.44.13.68c0,.27-.05.51-.14.72-.1.21-.23.38-.42.49s-.37.17-.57.17c-.15,0-.28-.03-.4-.09s-.21-.14-.29-.23v1.26h-.44Zm.4-2.28c0,.33.07.58.2.74.14.16.3.24.49.24s.36-.08.5-.25c.14-.17.21-.42.21-.77s-.07-.58-.2-.74c-.14-.16-.3-.25-.49-.25s-.35.09-.5.26c-.14.18-.22.43-.22.76Z" style="fill:#231f20; stroke-width:0px;"/><path d="m50.75,82.19v-3.59h.44v1.29c.21-.24.46-.36.78-.36.19,0,.36.04.5.11.14.08.24.18.3.31.06.13.09.33.09.58v1.65h-.44v-1.65c0-.22-.05-.38-.14-.48-.1-.1-.23-.15-.4-.15-.13,0-.25.03-.37.1-.11.07-.2.16-.25.28-.05.12-.07.28-.07.48v1.42h-.44Z" style="fill:#231f20; stroke-width:0px;"/><path d="m55.31,81.35l.46.06c-.07.27-.2.47-.4.62-.19.15-.44.22-.74.22-.38,0-.68-.12-.9-.35-.22-.23-.33-.56-.33-.98s.11-.78.34-1.02c.23-.24.52-.36.88-.36s.63.12.85.35c.22.24.33.57.33,1,0,.03,0,.06,0,.12h-1.94c.02.29.1.5.24.66.15.15.33.23.54.23.16,0,.3-.04.41-.13.11-.08.2-.22.27-.41Zm-1.45-.71h1.45c-.02-.22-.08-.38-.17-.49-.14-.17-.32-.25-.55-.25-.2,0-.37.07-.51.2-.14.14-.21.32-.23.54Z" style="fill:#231f20; stroke-width:0px;"/><path d="m56.31,82.19v-2.6h.4v.39c.1-.18.19-.31.28-.36.09-.06.18-.09.28-.09.15,0,.3.05.45.14l-.15.41c-.11-.06-.22-.1-.32-.1-.1,0-.18.03-.26.09-.08.06-.13.14-.16.24-.05.16-.07.33-.07.51v1.36h-.44Z" style="fill:#231f20; stroke-width:0px;"/></g></svg>