<?xml version="1.0" encoding="UTF-8"?><svg id="Layer_2" xmlns="http://www.w3.org/2000/svg" viewBox="0 0 85.02 54.23"><g id="Layer_1-2"><path d="m30.28.91c-2.8-.6-5.88-.91-9.25-.91-3.7,0-6.89.4-9.55,1.2-2.65.78-4.83,1.86-6.53,3.21-1.72,1.37-2.97,2.98-3.76,4.84-.8,1.84-1.2,3.81-1.2,5.88,0,2.77.57,5.12,1.72,7.03,1.16,1.91,2.59,3.5,4.34,4.78,1.59,1.18,3.32,2.14,5.2,2.89-.02-.42-.02-.85-.02-1.29,0-3.48.48-6.73,1.43-9.78-.17-.19-.32-.38-.47-.58-.64-.9-.96-1.97-.96-3.22,0-1.75.85-3.19,2.56-4.34,1.07-.71,2.52-1.23,4.35-1.5.04-.05.09-.08.13-.14,2.32-2.46,5.2-4.39,8.62-5.77,1.87-.75,3.85-1.31,6-1.66-.86-.25-1.73-.47-2.61-.66Z" style="fill:#121212; stroke-width:0px;"/><path d="m85.02,7.01v24.56c0,7.56-6.15,13.67-13.71,13.63h0c0-4.54-3.68-8.22-8.22-8.22h-17.61v7.16c-.56.18-1.14.34-1.71.46-1.94.43-3.6.65-4.99.65-3.73,0-6.71-.88-8.99-2.64.64-.85.96-1.86.96-3.08,0-1.03-.29-1.9-.83-2.61-.56-.73-1.31-1.34-2.25-1.88-.8-.45-1.69-.85-2.67-1.19-.24-1.32-.34-2.72-.34-4.23s.11-2.76.31-4.01c1.71.54,3.45,1.15,5.2,1.82,1.8.7,3.41,1.57,4.87,2.65.36.26.69.54,1.02.83V14.12c.86-.11,1.77-.16,2.73-.16,2.3,0,4.52.33,6.7,1.01h0c0,6.19,5.02,11.21,11.21,11.21h9.15c3.02,0,5.47-2.45,5.47-5.47h0c0-7.57,6.14-13.71,13.71-13.71h0Z" style="fill:#606161; stroke-width:0px;"/><path d="m30.66,13.23c-1.69.71-3.13,1.75-4.29,3.1-1.79,2.06-2.92,4.72-3.41,7.95-.03-.01-.06-.01-.1-.03-1.23-.37-2.43-.77-3.61-1.19-1.16-.43-2.22-.93-3.14-1.49-.7-.44-1.32-.94-1.82-1.52.1-.31.19-.62.3-.93,1.02-2.83,2.51-5.32,4.45-7.42.91-.12,1.93-.19,3.05-.19,1.79,0,3.72.22,5.82.65.85.16,1.8.59,2.74,1.08Z" style="fill:#515251; stroke-width:0px;"/><path d="m28.06,42.23c-.48.65-1.15,1.21-1.98,1.65-1.88,1-4.18,1.53-6.89,1.58l-.03-.03c-2.01-2.14-3.53-4.64-4.56-7.55-.91-2.58-1.4-5.32-1.52-8.26-.02-.37-.02-.74-.02-1.12,0-3.01.41-5.82,1.23-8.46.49.58,1.12,1.08,1.82,1.52.93.56,1.98,1.06,3.14,1.49,1.18.43,2.38.83,3.61,1.19.03.01.06.01.1.03-.22,1.31-.34,2.73-.34,4.23,0,1.59.11,3.08.37,4.47.53,3.11,1.66,5.68,3.41,7.7.51.59,1.05,1.11,1.66,1.56Z" style="fill:#6b6b6b; stroke-width:0px;"/><path d="m36.66,2.84c.7-.04,1.42-.07,2.15-.07,2.7,0,5.17.25,7.42.75.13.03.26.06.38.1v7.43c-2.3-.72-4.64-1.08-7.07-1.08-1.02,0-1.98.06-2.89.18-1.47.21-2.81.56-4.01,1.08-.94-.49-1.9-.91-2.74-1.08-2.11-.43-4.04-.65-5.82-.65-1.12,0-2.14.07-3.05.19.03-.04.08-.07.11-.12,2.01-2.14,4.5-3.8,7.47-5,1.61-.65,3.34-1.14,5.2-1.43" style="fill:#6b6b6b; stroke-width:0px;"/><path d="m30.94,53.46c-1.16-.27-2.27-.6-3.32-1.03-2.95-1.21-5.44-2.86-7.44-4.97,2.71-.04,5.01-.58,6.89-1.58.83-.44,1.5-1,1.98-1.65,2.41,1.86,5.55,2.79,9.49,2.79,1.47,0,3.22-.22,5.27-.68.61-.13,1.21-.29,1.8-.49v7.49s-.08.01-.11.03c-2.44.58-4.99.86-7.69.86-.73,0-1.45-.03-2.15-.07" style="fill:#515251; stroke-width:0px;"/></g></svg>