<?xml version="1.0" encoding="UTF-8"?><svg id="Layer_2" xmlns="http://www.w3.org/2000/svg" viewBox="0 0 751 417.46"><g id="Layer_1-2"><rect x="353.25" y="284.25" width="130" height="56" style="fill:#b5b5b5; stroke-width:0px;"/><rect x="177.25" width="482" height="279" rx="18.06" ry="18.06" style="fill:#b5b5b5; stroke-width:0px;"/><rect x="188.25" y="18.5" width="460" height="242" style="fill:#e0e0e0; stroke-width:0px;"/><rect x="209" y="47.25" width="418" height="185" rx="5.57" ry="5.57" style="fill:#efefef; stroke-width:0px;"/><rect x="494" y="118.48" width="203.55" height="271.77" rx="18.06" ry="18.06" style="fill:#b5b5b5; stroke-width:0px;"/><rect x="501.36" y="124.97" width="188.83" height="258.79" rx="13.36" ry="13.36" style="fill:#e0e0e0; stroke-width:0px;"/><rect x="629.16" y="185.38" width="121.84" height="232.09" rx="18.06" ry="18.06" style="fill:#b5b5b5; stroke-width:0px;"/><rect x="633.57" y="190.92" width="113.03" height="221" rx="13.36" ry="13.36" style="fill:#e0e0e0; stroke-width:0px;"/><rect x="353" y="343.25" width="130" height="9" style="fill:#d3d3d3; stroke-width:0px;"/><path d="m317,359.25H31.23v-177.07c0-9.32,7.55-16.87,16.87-16.87h252.04c9.32,0,16.87,7.55,16.87,16.87v177.07Z" style="fill:#b5b5b5; stroke-width:0px;"/><rect x="37.75" y="178.18" width="272.73" height="168.22" style="fill:#e0e0e0; stroke-width:0px;"/><path d="m31,358.65h286l37,29.73c0,9.32-.55,13.87-9.87,13.87H9.87c-9.32,0-9.87-4.55-9.87-13.87l31-29.73Z" style="fill:#b5b5b5; stroke-width:0px;"/><polygon points="340 384.25 14 384.25 33 364.25 315 364.25 340 384.25" style="fill:#d8d8d8; stroke-width:0px;"/></g></svg>